<?xml version="1.0" encoding="utf-8"?>
<svg version="1.0" xmlns="http://www.w3.org/2000/svg" width="300.000000pt" height="300.000000pt" viewBox="0 0 236.967 300" preserveAspectRatio="xMidYMid meet">
  <defs>
    <linearGradient gradientUnits="userSpaceOnUse" x1="118.492" y1="208.139" x2="118.492" y2="258.902" id="gradient-0" gradientTransform="matrix(1.076, -0.344939, 0.285845, 0.842763, -146.808259, 76.686355)">
      <stop offset="0" style="stop-color: rgb(252, 2, 178); stop-opacity: 0.6;"/>
      <stop offset="1" style="stop-color: rgb(60.204% 0% 44.184%)"/>
    </linearGradient>
    <linearGradient gradientUnits="userSpaceOnUse" x1="4691.68" y1="5060.938" x2="4691.68" y2="5359.126" id="gradient-1">
      <stop offset="0" style="stop-color: rgb(0% 25.49% 41.176%)"/>
      <stop offset="1" style="stop-color: rgb(0% 16.705% 30.351%)"/>
    </linearGradient>
    <linearGradient gradientUnits="userSpaceOnUse" x1="3198.477" y1="1447.616" x2="3198.477" y2="1579.072" id="gradient-3">
      <stop offset="0" style="stop-color: rgb(0% 25.49% 41.176%)"/>
      <stop offset="1" style="stop-color: rgb(0% 16.705% 30.351%)"/>
    </linearGradient>
    <linearGradient gradientUnits="userSpaceOnUse" x1="1884.482" y1="1843.508" x2="1884.482" y2="2074.855" id="gradient-4">
      <stop offset="0" style="stop-color: rgb(0% 25.49% 41.176%)"/>
      <stop offset="1" style="stop-color: rgb(0% 16.705% 30.351%)"/>
    </linearGradient>
    <linearGradient gradientUnits="userSpaceOnUse" x1="4110.689" y1="900" x2="4110.689" y2="1184.968" id="gradient-5">
      <stop offset="0" style="stop-color: rgb(0% 25.49% 41.176%)"/>
      <stop offset="1" style="stop-color: rgb(0% 16.705% 30.351%)"/>
    </linearGradient>
    <linearGradient gradientUnits="userSpaceOnUse" x1="4037.152" y1="582.256" x2="4037.152" y2="854.054" id="gradient-6">
      <stop offset="0" style="stop-color: rgb(0% 25.49% 41.176%)"/>
      <stop offset="1" style="stop-color: rgb(0% 16.705% 30.351%)"/>
    </linearGradient>
    <linearGradient gradientUnits="userSpaceOnUse" x1="3882.163" y1="80" x2="3882.163" y2="220.967" id="gradient-7">
      <stop offset="0" style="stop-color: rgb(0% 25.49% 41.176%)"/>
      <stop offset="1" style="stop-color: rgb(0% 16.705% 30.351%)"/>
    </linearGradient>
    <linearGradient gradientUnits="userSpaceOnUse" x1="3034.5" y1="4964.444" x2="3034.5" y2="5208.833" id="gradient-8">
      <stop offset="0" style="stop-color: rgb(0% 25.49% 41.176%)"/>
      <stop offset="1" style="stop-color: rgb(0% 16.705% 30.351%)"/>
    </linearGradient>
    <linearGradient gradientUnits="userSpaceOnUse" x1="4439.863" y1="4831.138" x2="4439.863" y2="5217.726" id="gradient-9">
      <stop offset="0" style="stop-color: rgb(0% 25.49% 41.176%)"/>
      <stop offset="1" style="stop-color: rgb(0% 16.705% 30.351%)"/>
    </linearGradient>
    <linearGradient gradientUnits="userSpaceOnUse" x1="3050.451" y1="3920" x2="3050.451" y2="4212.256" id="gradient-10">
      <stop offset="0" style="stop-color: rgb(0% 25.49% 41.176%)"/>
      <stop offset="1" style="stop-color: rgb(0% 16.705% 30.351%)"/>
    </linearGradient>
    <linearGradient gradientUnits="userSpaceOnUse" x1="1820.811" y1="3765.443" x2="1820.811" y2="3937.121" id="gradient-11">
      <stop offset="0" style="stop-color: rgb(0% 25.49% 41.176%)"/>
      <stop offset="1" style="stop-color: rgb(0% 16.705% 30.351%)"/>
    </linearGradient>
    <linearGradient gradientUnits="userSpaceOnUse" x1="3390.055" y1="3755.804" x2="3390.055" y2="3882.784" id="gradient-12">
      <stop offset="0" style="stop-color: rgb(0% 25.49% 41.176%)"/>
      <stop offset="1" style="stop-color: rgb(0% 16.705% 30.351%)"/>
    </linearGradient>
    <linearGradient gradientUnits="userSpaceOnUse" x1="1782.785" y1="3644.796" x2="1782.785" y2="3758.088" id="gradient-13">
      <stop offset="0" style="stop-color: rgb(0% 25.49% 41.176%)"/>
      <stop offset="1" style="stop-color: rgb(0% 16.705% 30.351%)"/>
    </linearGradient>
    <linearGradient gradientUnits="userSpaceOnUse" x1="1950" y1="3478.243" x2="1950" y2="3696.834" id="gradient-14">
      <stop offset="0" style="stop-color: rgb(0% 25.49% 41.176%)"/>
      <stop offset="1" style="stop-color: rgb(0% 16.705% 30.351%)"/>
    </linearGradient>
    <linearGradient gradientUnits="userSpaceOnUse" x1="1972.584" y1="3281.065" x2="1972.584" y2="3578.758" id="gradient-15">
      <stop offset="0" style="stop-color: rgb(0% 25.49% 41.176%)"/>
      <stop offset="1" style="stop-color: rgb(0% 16.705% 30.351%)"/>
    </linearGradient>
  </defs>
  <path style="fill: rgb(228, 23, 140);" d="M 65.391 114.631 C 67.454 114.805 69.117 115.881 69.117 118.062 C 69.909 122.034 66.445 133.137 65.529 136.56 C 63.983 142.33 64.007 143.945 62.585 149.604 C 62.14 151.369 60.81 157.21 60.522 159.043 C 59.45 165.864 56.012 171.699 55.666 179.467 C 55.597 181.027 54.054 183.412 53.678 184.928 C 52.885 188.119 51.431 204.858 45.274 198.62 C 45.006 198.348 45.34 195.002 45.507 194.746 C 46.534 193.166 46.884 191.13 47.722 189.423 C 49.863 185.066 51.021 176.644 52.402 171.542 C 53.512 167.443 54.884 162.589 55.555 158.37 C 56.529 152.252 59.508 145.307 60.404 138.032 C 61.053 132.77 64.007 126.283 64.007 120.894 C 64.007 117.648 63.779 114.631 65.391 114.631 Z"/>
  <path style="fill: rgb(255, 173, 3);" d="M 56.687 56.45 C 56.146 52.819 54.397 46.728 55.721 43.12 C 56.095 42.098 56.601 39.574 56.601 38.385 C 56.624 33.95 64.829 31.544 66.607 34.875 C 68.092 37.657 66.93 41.858 66.036 44.527 C 64.942 47.79 62.395 55.638 59.329 56.987 C 58.499 57.353 57.3 56.45 56.687 56.45 Z"/>
  <path style="fill: rgb(255, 173, 3);" d="M 98.623 59.997 C 97.583 54.78 94.222 46.026 96.766 40.841 C 97.485 39.373 98.459 35.745 98.459 34.037 C 98.502 27.664 114.272 24.205 117.689 28.993 C 120.543 32.991 118.309 39.028 116.59 42.864 C 114.489 47.553 109.594 58.83 103.702 60.769 C 102.106 61.295 99.802 59.997 98.623 59.997 Z"/>
  <path style="fill: url(&quot;#gradient-0&quot;);" d="M 18.761 196.842 C 26.501 196.661 33.928 195.52 41.168 196.688 C 46.511 197.55 52.381 198.296 57.712 198.848 C 61.378 199.227 64.634 200.164 68.125 201.013 C 69.186 201.271 70.919 201.867 71.484 202.965 C 73.266 206.432 67.281 210.921 66.905 214.312 C 66.662 216.495 66.968 218.722 66.476 220.884 C 65.866 223.572 64.324 226.223 63.857 228.922 C 62.605 236.164 61.16 243.365 56.752 249.671 C 55.202 251.89 51.473 250.388 49.083 250.963 C 44.04 252.177 38.47 250.448 33.674 249.71 C 30.368 249.201 21.269 246.359 24.701 236.111 L 28.956 205.078 C 21.42 206.276 15.552 197.253 18.761 196.842 Z"/>
  <g transform="matrix(0.056649, 0, 0, -0.055074, -79.624718, 299.926544)" fill="#000000" stroke="none" style="">
    <path d="M4775 5335 c-8 -19 -33 -35 -56 -35 -23 0 -36 -9 -29 -20 7 -11 -10 -20 -40 -20 -30 0 -47 -9 -40 -20 7 -11 -10 -29 -38 -39 -27 -11 -60 -40 -74 -65 -13 -25 -34 -53 -46 -63 -45 -34 98 11 148 47 75 54 284 160 314 160 15 0 26 10 26 23 0 14 -24 18 -69 11 -54 -9 -70 -4 -75 22 -7 31 -8 31 -21 -1z" style="fill: url(&quot;#gradient-1&quot;);"/>
    <path d="M 3510 5211 C 3477 5197 3405 5139 3351 5082 C 3297 5026 3220 4970 3181 4957 C 3087 4927 3005 4868 2990 4819 C 2973 4767 2873 4767 2805 4820 C 2765 4852 2724 4860 2609 4860 C 2345 4860 2313 4826 2311 4536 C 2310 4295 2320 4283 2458 4370 C 2517 4408 2645 4472 2742 4513 C 2838 4554 2913 4595 2907 4604 C 2902 4613 2888 4615 2877 4608 C 2865 4601 2859 4611 2863 4633 C 2878 4710 2945 4675 2980 4570 C 3086 4260 3180 4177 3425 4178 C 3741 4179 3879 4326 3903 4687 C 3908 4750 3911 4754 3959 4739 C 3987 4730 4136 4686 4290 4641 C 4751 4507 4739 4514 4738 4404 C 4738 4352 4740 4272 4744 4225 C 4747 4178 4743 4140 4734 4140 C 4726 4140 4728 4122 4740 4100 C 4754 4074 4754 4060 4741 4060 C 4730 4060 4726 4048 4732 4033 C 4751 3983 4644 3888 4469 3799 C 4374 3750 4279 3686 4258 3657 C 4193 3567 3738 3507 3648 3578 C 3619 3601 3578 3620 3557 3620 C 3531 3620 3515 3639 3507 3680 C 3487 3779 3440 3800 3440 3710 C 3440 3642 3436 3637 3395 3650 C 3320 3674 2920 3687 2920 3665 C 2920 3654 3017 3641 3145 3635 C 3466 3621 3494 3603 3366 3493 C 3326 3458 3249 3383 3195 3327 C 3050 3173 2879 3116 2759 3181 C 2672 3227 2714 3260 2861 3260 C 3060 3260 3178 3334 3249 3505 C 3290 3603 3254 3602 3192 3502 C 3081 3328 2893 3290 2656 3395 C 2545 3444 2442 3634 2440 3791 C 2440 3836 2582 3977 2640 3990 C 2714 4006 2800 4107 2799 4177 C 2799 4225 2796 4227 2772 4195 C 2748 4163 2743 4163 2719 4191 C 2664 4258 2578 4285 2471 4270 C 2416 4263 2346 4253 2316 4250 C 2248 4243 2146 4171 2130 4119 C 2104 4039 2154 3971 2363 3802 C 2404 3769 2478 3508 2479 3393 C 2480 3336 2479 3336 2385 3348 L 2290 3361 L 2348 3309 C 2403 3259 2424 3257 2507 3291 C 2538 3303 2542 3299 2532 3266 C 2515 3214 2371 2588 2338 2425 C 2311 2297 2249 2249 2156 2286 C 2142 2292 2157 2298 2190 2300 C 2300 2307 2020 2358 1877 2357 C 1755 2356 1742 2352 1702 2298 C 1667 2251 1665 2240 1689 2240 C 1715 2240 1720 2208 1720 2060 C 1720 1947 1712 1880 1699 1880 C 1687 1880 1683 1871 1690 1860 C 1710 1827 1642 1813 1606 1843 C 1572 1871 1572 1845 1608 1760 C 1617 1738 1603 1722 1560 1706 C 1481 1676 1475 1590 1550 1556 C 1610 1529 1612 1517 1560 1485 C 1496 1445 1508 1356 1583 1312 L 1646 1274 L 1601 1241 C 1536 1192 1554 1121 1645 1062 C 1703 1024 1720 1000 1720 956 C 1720 886 1824 831 2020 797 C 2111 781 2138 768 2135 743 C 2131 709 2227 387 2305 170 C 2329 104 2347.758 3 2342.758 0 C 2337.758 -3 2281.071 0 3000 0 C 4987 0 5564.469 0 5564.469 0 L 5550 95 C 5444 609 5444.671 1464.402 5068.541 1743.197 C 4820.889 1926.762 4494 2260 4458 2260 C 4439 2260 4418 2286 4407 2324 C 4395 2368 4373 2392 4340 2400 C 4282 2414 4241 2589 4199 3000 C 4156 3418 4201 3517 4499 3654 C 4855 3820 4954 3963 4882 4212 C 4865 4272 4867 4274 4953 4297 C 5275 4383 5476 4796 5341 5093 C 5242 5313 4908 5215 4789 4931 C 4775 4898 4740 4848 4712 4821 C 4678 4790 4667 4768 4682 4759 C 4697 4749 4696 4732 4677 4698 C 4662 4671 4649 4648 4648 4645 C 4647 4642 4575 4669 4488 4707 C 4401 4744 4231 4809 4110 4851 C 3988 4894 3875 4947 3857 4969 C 3826 5006 3803 5010 3582 5007 C 3310 5004 3303 5006 3434 5064 C 3576 5126 3749 5122 3867 5053 C 3978 4987 3989 5018 3887 5111 C 3752 5235 3633 5267 3510 5211 Z M 5272 4948 C 5347 4751 5179 4457 4957 4398 C 4777 4350 4670 4514 4795 4646 C 4828 4681 4888 4764 4929 4830 C 5085 5081 5205 5122 5272 4948 Z M 3365 4895 C 3293 4818 3220 4632 3207 4492 C 3188 4291 3153 4328 3164 4536 C 3180 4799 3251 4933 3378 4939 C 3399 4940 3395 4927 3365 4895 Z M 2472.036 4651.741 C 2460.036 4544.741 2442 4474 2410 4556 C 2379 4639 2453 4770 2540 4784 C 2612 4796 2486.036 4764.741 2472.036 4651.741 Z M 2661 4169 C 2690 4143 2694 4126 2679 4097 C 2655 4052 2609 4048 2593 4090 C 2559 4179 2430 4071 2446 3968 C 2460 3887 2422 3875 2373 3945 C 2348 3982 2342 3984 2341 3956 C 2339 3904 2288 3933 2259 4001 C 2246 4034 2223 4060 2208 4060 C 2192 4060 2180 4069 2180 4080 C 2180 4091 2219 4099 2266 4097 C 2314 4095 2370 4104 2391 4116 C 2432 4139 2434 4139 2208 4111 C 2148 4103 2140 4106 2161 4131 C 2174 4147 2213 4161 2247 4162 C 2282 4162 2346 4175 2390 4190 C 2489 4224 2611 4215 2661 4169 Z M 3668 3399 C 3853 3236 3882 2411 3709 2233 C 3591 2112 3641 2009 3788 2070 C 3827 2087 3864 2100 3871 2100 C 3896 2100 3856 1849 3817 1760 L 3778 1670 L 3699 1754 C 3593 1868 3595 1900 3710 1900 C 3793 1900 3800 1904 3800 1951 C 3800 2011 3690 2013 3631 1954 C 3587 1910 3560 1911 3560 1957 C 3560 1988 3407 2120 3371 2120 C 3363 2120 3360 2087 3364 2047 C 3370 1971 3392 1950 3486 1931 C 3517 1924 3537 1911 3530 1901 C 3524 1891 3529 1877 3541 1870 C 3572 1850 3524 1800 3442 1766 C 3355 1729 3346 1741 3330 1920 C 3308 2161 3425 2233 3549 2056 C 3566 2031 3580 2020 3580 2032 C 3580 2095 3366 2241 3337 2197 C 3237 2041 3284 1624 3400 1647 L 3454 1658 L 3388 1464 C 3272 1125 3160 563 3132 180 C 3122 45 3106 20 3028 20 C 2946 20 2946 15 3018 134 C 3074 226 3077 244 3087 530 C 3101 908 3134 1056 3262 1323 C 3375 1556 3386 1655 3281 1485 C 3246 1427 3212 1380 3207 1380 C 3202 1380 3203 1389 3210 1400 C 3217 1411 3218 1420 3212 1420 C 3183 1420 3045 1127 2943 847 C 2750 324 2728 294 2660 474 C 2578 694 2557 841 2600 910 C 2686 1050 2813 1460 2771 1460 C 2766 1460 2744 1420 2722 1370 C 2657 1223 2564 1267 2625 1416 C 2656 1491 2750 1835 2773 1958 C 2781 2000 2800 2029 2823 2035 C 2868 2047 2871 2077 2830 2093 C 2814 2099 2800 2120 2800 2139 C 2800 2174 2295 2281 2265 2252 C 2259 2245 2276 2240 2303 2240 C 2330 2240 2370 2227 2391 2211 C 2428 2183 2427 2181 2370 2181 C 2308 2180 1887 2249 1818 2271 C 1703 2307 1923 2355 2062 2324 C 2140 2307 2143 2304 2090 2300 L 2030 2296 L 2100 2278 C 2139 2268 2207 2265 2252 2271 L 2333 2281 L 2386 2506 C 2415 2629 2467 2861 2501 3020 C 2580 3386 2576 3372 2605 3343 C 2623 3325 2622 3304 2602 3255 C 2551 3131 2363 2291 2382 2271 C 2393 2259 2407 2259 2420 2272 C 2442 2294 2640 3124 2640 3195 C 2640 3257 2663 3251 2704 3180 C 2794 3021 3045 3056 3207 3250 C 3368 3443 3551 3502 3668 3399 Z M 3952 3195 C 3979 3137 3997 3106 3991 3125 C 3986 3144 3990 3160 4001 3160 C 4011 3160 4020 3153 4020 3145 C 4020 3137 4026 3110 4033 3085 C 4040 3057 4036 3040 4021 3040 C 4008 3040 4003 3049 4010 3060 C 4017 3071 4012 3080 4000 3080 C 3987 3080 3982 3064 3987 3045 C 3993 3026 4008 2857 4021 2670 C 4034 2483 4052 2321 4062 2311 C 4079 2293 4089 2336 4081 2395 C 4080 2409 4088 2420 4099 2420 C 4111 2420 4120 2413 4120 2404 C 4120 2396 4136 2387 4155 2386 C 4244 2379 4305 2340 4279 2308 C 4214 2230 3805 2080 3777 2125 C 3752 2164 3757 2213 3790 2240 C 3860 2298 3886 2474 3888 2895 C 3889 3118 3893 3300 3896 3300 C 3900 3300 3925 3253 3952 3195 Z M 4503 2016 C 4505 1975 4515 1947 4525 1953 C 4536 1960 4540 1948 4534 1928 C 4528 1907 4517 1860 4510 1824 C 4485 1702 4280 1633 4243 1734 C 4232 1765 4222 1779 4222 1766 C 4221 1752 4243 1690 4271 1627 L 4321 1513 L 4234 1421 C 4041 1219 3585 674 3291 294 C 3142 101 3125 91 3167 222 C 3183 271 3202 337 3209 370 C 3217 403 3254 491 3291 565 C 3367 713 3374 736 3333 702 C 3297 673 3259 714 3270 771 C 3274 792 3278 835 3278 865 C 3280 914 3284 918 3317 897 C 3367 866 3420 889 3420 942 C 3420 978 3411 983 3360 976 C 3306 968 3301 972 3312 1008 C 3448 1477 3543 1720 3589 1720 C 3678 1720 3688 1649 3633 1425 C 3604 1307 3580 1188 3581 1160 C 3582 1065 3645 1215 3681 1400 C 3706 1525 3722 1568 3742 1563 C 3758 1558 3784 1551 3801 1546 C 3847 1533 3945 1682 3931 1743 C 3920 1785 3933 1797 4055 1853 C 4155 1900 4226 1954 4330 2063 L 4470 2210 L 4484 2150 C 4492 2117 4501 2057 4503 2016 Z M 2149 2148 C 2345 2113 2336 2124 2285 1975 L 2243 1850 L 2251 1940 L 2259 2030 L 2235 1957 C 2221 1916 2203 1877 2195 1868 C 2154 1827 2284 1766 2333 1804 C 2354 1820 2577 1795 2646 1769 C 2668 1760 2684 1793 2710 1900 C 2729 1978 2749 2037 2755 2032 C 2760 2026 2749 1959 2731 1882 C 2689 1712 2687 1711 2304 1715 C 2139 1717 2043 1711 2051 1699 C 2057 1689 2090 1680 2123 1680 C 2179 1680 2183 1676 2177 1610 C 2174 1570 2183 1530 2198 1515 C 2221 1494 2224 1496 2214 1524 C 2206 1547 2215 1562 2241 1570 C 2262 1577 2280 1591 2280 1601 C 2280 1629 2327 1624 2370 1593 C 2400 1571 2408 1536 2411 1422 C 2413 1343 2420 1273 2427 1266 C 2434 1259 2432 1244 2422 1232 C 2412 1220 2399 1174 2393 1130 C 2362 906 2206 850 1912 959 C 1873 973 1862 1151 1893 1286 C 1898 1310 1906 1371 1911 1420 C 1916 1470 1928 1559 1939 1618 C 1963 1749 1961 1751 1861 1767 C 1767 1783 1728 1834 1773 1883 C 1794 1906 1803 1960 1802 2059 L 1802 2202 L 1896 2189 C 1948 2182 2061 2164 2149 2148 Z M 2581 2080 C 2711 2055 2707 2059 2670 1988 C 2654 1956 2640 1900 2640 1863 C 2640 1812 2633 1798 2610 1807 C 2594 1813 2537 1824 2483 1832 C 2339 1851 2337 1854 2364 1986 C 2391 2114 2394 2115 2581 2080 Z M 4671 1830 C 4690 1781 4712 1740 4720 1740 C 4737 1740 4785 1641 4790 1595 C 4794 1554 4756 1516 4718 1524 C 4696 1529 4557 1292 4565 1262 C 4567 1255 4562 1219 4555 1180 C 4506 925 4504 980 4570 670 C 4642 330 4651 269 4650 150 L 4649 50 L 3915 45 C 3511 42 3180 45 3180 51 C 3180 58 3232 128 3296 207 C 3361 285 3475 431 3550 530 C 3733 769 3947 1024 4178 1277 L 4367 1483 L 4333 1540 C 4285 1622 4290 1633 4390 1658 C 4472 1679 4485 1690 4540 1800 C 4613 1944 4626 1947 4671 1830 Z M 1701 1679 C 1746 1655 1753 1584 1712 1568 C 1682 1556 1571 1606 1550 1640 C 1516 1694 1622 1722 1701 1679 Z M 1866 1587 C 1860 1572 1867 1560 1880 1560 C 1899 1560 1899 1553 1879 1529 C 1842 1484 1813 1525 1830 1601 C 1840 1644 1850 1657 1860 1639 C 1869 1625 1872 1602 1866 1587 Z M 5048.73 1516.321 C 5063.73 1483.321 5326.085 1336.52 5284.278 983.876 C 5280.377 950.97 5500 70 5500 52 C 5500 45 5371 40 5213 40 L 4927 40 L 4928 124 C 4930 197 4922 212 4877 234 C 4791 276 4621 712 4653 806 C 4673 864 4677 945 4661 970 C 4653 981 4649 1031 4651 1080 C 4652 1130 4646 1196 4637 1227 C 4588 1404 4977.73 1672.321 5048.73 1516.321 Z M 1776 1439 C 1847 1396 1854 1349 1795 1312 C 1748 1283 1573 1378 1564 1439 C 1555 1495 1684 1496 1776 1439 Z M 1802 1186 C 1827 1161 1806 1106 1765 1091 C 1728 1077 1600 1159 1600 1198 C 1600 1229 1769 1219 1802 1186 Z M 2155 876 C 2364 843 2364 789 2155 807 C 1962 824 1860 854 1860 894 C 1860 919 1874 923 1935 912 C 1976 905 2075 889 2155 876 Z M 2491 741 C 2460 691 2615 281 2687 223 C 2716 198 2720 201 2720 253 L 2721 310 L 2758 262 L 2795 213 L 2810 262 C 2837 346 2986 640 3002 640 C 3039 640 2992 347 2937 227 C 2906 159 2880 89 2880 71 C 2880 25 2477 33 2468 80 C 2449 179 2437 224 2421 266 C 2412 292 2388 375 2370 452 C 2351 528 2323 611 2306 637 C 2271 693 2271 694 2382 728 C 2492 763 2505 765 2491 741 Z M 4862 130 C 4880 82 4890 37 4884 31 C 4871 18 4760 16 4760 29 C 4760 73 4807 240 4816 230 C 4823 224 4844 179 4862 130 Z" style="paint-order: fill; fill: rgb(0, 65, 105);"/>
    <path d="M3194 1552 c-19 -15 -39 -48 -44 -73 -5 -25 -2 -38 6 -28 8 11 36 44 63 74 50 58 36 73 -25 27z" style="fill: url(&quot;#gradient-3&quot;);"/>
    <path d="M1880 2050 c-20 -24 -21 -42 -3 -82 30 -65 33 -61 -42 -77 -57 -13 -60 -16 -25 -31 89 -38 221 -4 153 38 -13 8 -21 49 -18 91 5 83 -24 111 -65 61z" style="fill: url(&quot;#gradient-4&quot;);"/>
    <path d="M4134 1130 c-41 -43 -74 -85 -74 -94 0 -9 -12 -16 -27 -16 -14 0 -47 -22 -73 -50 -46 -49 -47 -50 -5 -50 24 0 57 20 74 44 17 25 31 36 31 24 0 -11 -11 -31 -24 -44 -19 -19 -15 -24 18 -24 24 0 61 25 84 55 23 32 41 43 41 27 1 -16 -14 -45 -32 -65 -32 -35 -29 -37 62 -37 94 0 95 1 82 55 -20 80 -48 104 -108 97 -29 -4 -37 -3 -18 2 19 5 40 30 47 57 23 92 -3 98 -78 19z" style="fill: url(&quot;#gradient-5&quot;);"/>
    <path d="M4347 830 c-12 -22 -18 -51 -13 -65 6 -15 -8 -25 -34 -25 -32 0 -40 -9 -31 -37 19 -60 -106 -88 -355 -80 -118 4 -214 1 -214 -6 0 -20 307 -41 480 -33 l149 6 25 110 c30 129 26 192 -7 130z" style="fill: url(&quot;#gradient-6&quot;);"/>
    <path d="M3828 192 c-17 -43 28 -112 73 -112 27 0 39 14 39 46 0 79 -87 130 -112 66z" style="fill: url(&quot;#gradient-7&quot;);"/>
    <path d="M2988 5191 c-71 -31 -168 -147 -168 -201 0 -33 3 -33 35 -6 73 64 165 96 279 96 l115 0 -59 58 c-77 74 -125 87 -202 53z" style="fill: url(&quot;#gradient-8&quot;);"/>
    <path d="M4830 5192 c-33 -14 -109 -57 -170 -96 -155 -98 -192 -103 -363 -49 -383 123 -456 71 -87 -61 77 -28 175 -77 219 -108 92 -67 113 -62 53 14 -56 71 -53 88 17 88 36 0 107 33 187 88 70 48 154 102 186 119 70 38 41 42 -42 5z" style="fill: url(&quot;#gradient-9&quot;);"/>
    <path d="M2834 4186 c6 -16 63 -54 127 -87 148 -74 156 -90 64 -120 -85 -27 -130 -59 -82 -59 39 0 277 78 317 103 21 13 3 16 -55 8 -77 -10 -88 -7 -104 36 -10 27 -48 69 -84 95 -74 53 -200 69 -183 24z" style="fill: url(&quot;#gradient-10&quot;);"/>
    <path d="M1589 3918 c231 -24 366 -55 496 -113 132 -58 171 -51 68 13 -112 69 -357 122 -551 119 l-172 -2 159 -17z" style="fill: url(&quot;#gradient-11&quot;);"/>
    <path d="M3199 3873 c-5 -6 -82 -26 -169 -44 -175 -36 -196 -44 -180 -69 5 -9 57 -3 115 13 58 16 163 29 234 29 71 0 141 9 155 22 32 25 393 9 505 -23 96 -28 102 -8 9 32 -77 33 -643 67 -669 40z" style="fill: url(&quot;#gradient-12&quot;);"/>
    <path d="M1690 3730 c-163 -27 -300 -67 -283 -84 6 -5 80 6 165 25 89 20 248 36 372 37 158 1 216 9 216 27 0 33 -253 30 -470 -5z" style="fill: url(&quot;#gradient-13&quot;);"/>
    <path d="M2040 3648 c-200 -59 -380 -137 -380 -166 0 -11 52 3 115 31 63 28 174 67 245 87 195 54 220 63 220 82 0 24 -5 23 -200 -34z" style="fill: url(&quot;#gradient-14&quot;);"/>
    <path d="M2051 3527 c-134 -58 -307 -164 -348 -214 -40 -48 -10 -41 63 15 84 64 345 189 428 204 36 7 66 20 66 30 0 32 -88 17 -209 -35z" style="fill: url(&quot;#gradient-15&quot;);"/>
  </g>
</svg>